<svg xmlns="http://www.w3.org/2000/svg" enable-background="new 0 0 36 36" height="512" viewBox="0 0 36 36" width="512"><g><g><path d="m27.25 29.25h-18.5c-1.105 0-2-.895-2-2v-18.5c0-1.105.895-2 2-2h18.5c1.105 0 2 .895 2 2v18.5c0 1.105-.895 2-2 2z" fill="#5867dd"/></g><g><path d="m9 27.25v-18.5c0-1.105.895-2 2-2h-2.25c-1.105 0-2 .895-2 2v18.5c0 1.105.895 2 2 2h2.25c-1.105 0-2-.895-2-2z" fill="#192bb5"/></g><g><path d="m21.25 22.25h-6.5c-.552 0-1-.448-1-1v-6.5c0-.552.448-1 1-1h6.5c.552 0 1 .448 1 1v6.5c0 .552-.448 1-1 1z" fill="#f3f3f1"/></g></g></svg>