<?xml version="1.0" encoding="iso-8859-1"?>
<!-- Generator: Adobe Illustrator 19.0.0, SVG Export Plug-In . SVG Version: 6.00 Build 0)  -->
<svg version="1.1" id="Capa_1" xmlns="http://www.w3.org/2000/svg" xmlns:xlink="http://www.w3.org/1999/xlink" x="0px" y="0px"
	 viewBox="0 0 512 512" style="enable-background:new 0 0 512 512;" xml:space="preserve">
<path style="fill:#5ADAFD;" d="M512,256c0,84.344-40.793,159.159-103.717,205.803c-26.342,19.519-56.56,34.105-89.287,42.381
	C298.841,509.294,277.744,512,256,512s-42.851-2.706-63.007-7.816c-32.726-8.276-62.945-22.862-89.287-42.392
	C40.782,415.148,0,340.334,0,256C0,114.615,114.615,0,256,0S512,114.615,512,256z"/>
<g>
	<path style="fill:#F2F2F2;" d="M408.545,400.144c-1.202-8.056-2.79-16.353-4.754-24.837c-1.735-7.45-3.751-15.047-6.039-22.758
		c-6.019-20.25-13.949-41.294-23.562-62.568c-4.211-9.3-8.746-18.641-13.584-27.972c-4.263-8.223-8.756-16.457-13.49-24.639
		c-4.723-8.192-9.592-16.196-14.597-24.001c-5.653-8.85-11.473-17.439-17.429-25.736c-13.605-18.965-27.867-36.362-42.402-51.702
		c-5.527-5.841-11.097-11.379-16.687-16.593c-6.363-5.956-12.758-11.483-19.143-16.551c-41.681-33.092-78.994-43.029-105.085-27.972
		c-26.091,15.067-36.143,52.349-28.327,105.002c1.191,8.056,2.79,16.353,4.765,24.837c1.714,7.45,3.73,15.047,6.029,22.758
		c6.019,20.25,13.949,41.305,23.573,62.568c4.201,9.3,8.735,18.63,13.573,27.961c4.263,8.234,8.767,16.457,13.49,24.649
		c4.723,8.192,9.592,16.196,14.597,24.001c5.663,8.861,11.483,17.45,17.429,25.746c13.605,18.965,27.867,36.352,42.402,51.691
		c5.528,5.841,11.107,11.389,16.697,16.603c6.363,5.956,12.758,11.473,19.132,16.541c15.329,12.173,30.062,21.211,43.865,27.011
		c32.726-8.276,62.945-22.862,89.286-42.381C411.961,444.855,412.097,424.093,408.545,400.144z M385.076,458
		c-3.041,13.145-8.631,22.152-16.624,26.76c-7.983,4.618-18.578,4.953-31.483,1.024c-13.981-4.274-30.302-13.615-47.208-27.042
		c-5.684-4.514-11.379-9.425-17.074-14.702c-5.58-5.183-11.16-10.721-16.697-16.583c-9.509-10.062-18.913-21.076-28.087-32.893
		c-6.123-7.889-12.152-16.133-18.035-24.691c-8.537-12.403-16.781-25.464-24.618-39.048c-7.847-13.584-15.036-27.251-21.504-40.845
		c-4.472-9.373-8.6-18.714-12.361-27.961c-5.653-13.855-10.491-27.512-14.451-40.772c-2.299-7.732-4.315-15.318-5.998-22.747
		c-1.735-7.565-3.145-14.963-4.211-22.141c-3.176-21.347-3.103-40.155,0.188-54.397c3.041-13.145,8.641-22.152,16.624-26.76
		c4.315-2.487,9.383-3.741,15.161-3.741c4.932,0,10.386,0.909,16.321,2.727c13.981,4.263,30.302,13.615,47.208,27.032
		c5.684,4.514,11.389,9.425,17.074,14.723c5.59,5.172,11.16,10.71,16.687,16.562c9.519,10.062,18.923,21.076,28.108,32.904
		c6.123,7.889,12.152,16.133,18.035,24.691c8.526,12.403,16.771,25.464,24.607,39.037c7.847,13.584,15.036,27.251,21.504,40.845
		c4.472,9.383,8.6,18.725,12.361,27.972c5.653,13.855,10.491,27.502,14.451,40.761c2.299,7.732,4.315,15.318,6.008,22.747
		c1.724,7.565,3.135,14.963,4.201,22.141C388.441,424.95,388.368,443.758,385.076,458z"/>
	<path style="fill:#F2F2F2;" d="M427.677,212.961c-7.576-2.988-15.559-5.757-23.897-8.307c-7.314-2.226-14.9-4.284-22.727-6.154
		c-20.543-4.911-42.736-8.568-65.964-10.867c-10.146-1.014-20.501-1.755-30.992-2.226c-9.258-0.428-18.641-0.648-28.097-0.648
		s-18.84,0.219-28.108,0.648c-10.501,0.47-20.856,1.223-31.002,2.226c-23.228,2.299-45.411,5.956-65.954,10.867
		c-7.826,1.87-15.412,3.929-22.727,6.154c-8.338,2.539-16.321,5.319-23.897,8.307C34.816,232.5,7.544,259.856,7.544,289.98
		c0,30.124,27.272,57.48,76.769,77.03c7.576,2.988,15.548,5.757,23.886,8.307c7.314,2.226,14.9,4.284,22.727,6.144
		c20.543,4.921,42.736,8.568,65.975,10.877c10.146,1.003,20.501,1.745,31.002,2.226c9.258,0.428,18.641,0.637,28.097,0.637
		c9.456,0,18.829-0.209,28.087-0.637c10.501-0.481,20.846-1.223,31.002-2.226c23.228-2.299,45.432-5.956,65.975-10.877
		c7.826-1.87,15.412-3.918,22.727-6.154c8.328-2.539,16.311-5.308,23.886-8.297c49.507-19.55,76.769-46.905,76.769-77.03
		C504.445,259.856,477.184,232.5,427.677,212.961z M466.045,317.753c-10.679,9.979-26.937,19.435-47.01,27.366
		c-6.76,2.664-13.866,5.151-21.285,7.429c-7.283,2.247-14.858,4.305-22.695,6.165c-13.469,3.208-27.711,5.841-42.538,7.879
		c-9.885,1.369-20.031,2.466-30.386,3.271c-15.015,1.202-30.448,1.808-46.132,1.808s-31.117-0.606-46.132-1.797
		c-10.355-0.815-20.511-1.912-30.396-3.281c-14.827-2.038-29.069-4.671-42.538-7.879c-7.837-1.86-15.412-3.918-22.695-6.165
		c-7.419-2.278-14.524-4.765-21.285-7.429c-20.072-7.931-36.331-17.387-47.01-27.366c-9.864-9.206-14.869-18.547-14.869-27.773
		c0-9.226,5.005-18.568,14.869-27.773c10.679-9.979,26.937-19.435,47.01-27.366c6.76-2.664,13.866-5.151,21.285-7.429
		c7.283-2.247,14.858-4.305,22.695-6.165c13.469-3.208,27.711-5.841,42.538-7.879c9.885-1.369,20.041-2.466,30.396-3.281
		c15.015-1.191,30.448-1.797,46.132-1.797s31.117,0.606,46.132,1.808c10.355,0.805,20.501,1.902,30.386,3.271
		c14.827,2.038,29.069,4.671,42.538,7.879c7.837,1.86,15.412,3.918,22.695,6.165c7.419,2.278,14.524,4.765,21.285,7.429
		c20.072,7.931,36.331,17.387,47.01,27.366c9.864,9.206,14.869,18.547,14.869,27.773
		C480.914,299.207,475.909,308.548,466.045,317.753z"/>
	<path style="fill:#F2F2F2;" d="M380.217,74.815c-26.091-15.057-63.404-5.12-105.085,27.972
		c-6.374,5.068-12.769,10.595-19.132,16.551c-5.59,5.214-11.17,10.762-16.697,16.603c-14.535,15.339-28.797,32.726-42.412,51.691
		c-5.945,8.296-11.766,16.886-17.418,25.736c-5.005,7.805-9.874,15.809-14.597,24.001c-4.723,8.192-9.226,16.415-13.49,24.649
		c-4.838,9.331-9.373,18.672-13.573,27.961c-9.624,21.274-17.554,42.318-23.573,62.568c-2.299,7.722-4.315,15.318-6.04,22.768
		c-1.964,8.485-3.563,16.771-4.754,24.827c-3.553,23.939-3.417,44.701,0.261,61.649c26.342,19.529,56.56,34.116,89.287,42.392
		c13.803-5.799,28.536-14.838,43.865-27.011c6.384-5.068,12.779-10.595,19.143-16.541c5.59-5.214,11.16-10.752,16.687-16.593
		c14.524-15.339,28.797-32.737,42.402-51.702c5.945-8.297,11.766-16.886,17.429-25.746c5.005-7.805,9.874-15.809,14.597-24.001
		c4.733-8.182,9.226-16.405,13.49-24.639c4.838-9.331,9.373-18.672,13.584-27.972c9.613-21.264,17.544-42.318,23.562-62.568
		c2.288-7.711,4.305-15.308,6.029-22.758c1.975-8.485,3.563-16.781,4.765-24.837C416.36,127.164,406.309,89.882,380.217,74.815z
		 M375.056,221.247c-3.96,13.26-8.798,26.906-14.451,40.761c-3.762,9.247-7.889,18.589-12.361,27.972
		c-6.468,13.594-13.657,27.261-21.504,40.845c-7.837,13.573-16.081,26.634-24.607,39.037c-5.893,8.568-11.922,16.812-18.045,24.701
		c-9.174,11.818-18.578,22.831-28.097,32.893c-5.527,5.851-11.097,11.389-16.687,16.572c-5.684,5.287-11.389,10.198-17.074,14.712
		c-16.906,13.427-33.228,22.768-47.208,27.042c-12.904,3.929-23.5,3.594-31.483-1.024c-7.983-4.608-13.584-13.615-16.624-26.76
		c-3.291-14.242-3.365-33.05-0.188-54.397c1.066-7.178,2.476-14.576,4.2-22.141c1.693-7.429,3.709-15.015,6.008-22.747
		c3.96-13.26,8.798-26.917,14.451-40.772c3.762-9.247,7.889-18.589,12.361-27.961c6.468-13.594,13.657-27.261,21.504-40.845
		c7.837-13.584,16.081-26.645,24.618-39.048c5.883-8.558,11.901-16.802,18.024-24.68c9.185-11.828,18.589-22.841,28.097-32.904
		c5.538-5.862,11.118-11.4,16.697-16.572c5.695-5.287,11.389-10.198,17.074-14.712c16.906-13.416,33.228-22.768,47.208-27.032
		c5.935-1.818,11.389-2.727,16.321-2.727c5.778,0,10.856,1.254,15.161,3.741c7.993,4.608,13.584,13.615,16.624,26.76
		c3.291,14.242,3.365,33.05,0.188,54.397c-1.066,7.178-2.476,14.576-4.211,22.141C379.371,205.928,377.354,213.514,375.056,221.247z
		"/>
	<circle style="fill:#F2F2F2;" cx="256" cy="289.98" r="46.696"/>
</g>
<g>
</g>
<g>
</g>
<g>
</g>
<g>
</g>
<g>
</g>
<g>
</g>
<g>
</g>
<g>
</g>
<g>
</g>
<g>
</g>
<g>
</g>
<g>
</g>
<g>
</g>
<g>
</g>
<g>
</g>
</svg>
